<svg xmlns="http://www.w3.org/2000/svg" viewBox="0 0 400 300" width="400" height="300" role="img" aria-label="Ddangddeul cover">
  <rect width="400" height="300" fill="#161410"/>
  <!-- 도로 -->
  <path d="M148 0 L142 236" stroke="#2d2820" stroke-width="9" fill="none"/>
  <path d="M0 176 L400 168" stroke="#2d2820" stroke-width="10" fill="none"/>
  <path d="M0 176 L400 168" stroke="#161410" stroke-width="1.4" stroke-dasharray="7 9" fill="none"/>
  <!-- 필지 폴리곤 -->
  <g stroke="#161410" stroke-width="2.5">
    <path d="M22 26 L136 22 L134 78 L26 84 Z" fill="#243028"/>
    <path d="M26 92 L134 86 L132 160 L30 166 Z" fill="#2c3a24"/>
    <path d="M158 20 L268 16 L266 88 L156 92 Z" fill="#1f2c24"/>
    <path d="M276 18 L378 24 L376 92 L274 90 Z" fill="#33402a"/>
    <path d="M156 100 L242 96 L240 158 L154 162 Z" fill="#db4322"/>
    <path d="M250 98 L378 98 L376 160 L248 156 Z" fill="#3a342a"/>
    <path d="M24 190 L134 184 L132 244 L28 248 Z" fill="#2a2620"/>
    <path d="M152 188 L262 184 L260 242 L150 246 Z" fill="#243028"/>
    <path d="M270 186 L378 182 L376 240 L268 244 Z" fill="#1f2c24"/>
  </g>
  <!-- 지번 라벨 -->
  <g font-family="ui-monospace, monospace" font-size="10" fill="#857c6c">
    <text x="60" y="56">산137-1</text>
    <text x="196" y="56">220-4</text>
    <text x="60" y="132">305-2</text>
    <text x="298" y="132">402</text>
    <text x="192" y="218">405-3</text>
  </g>
  <!-- 판매중 마커 -->
  <circle cx="198" cy="128" r="5" fill="#ffe6dd"/>
  <circle cx="198" cy="128" r="5" fill="none" stroke="#ffe6dd" opacity="0.6">
    <animate attributeName="r" values="5;14;5" dur="2.4s" repeatCount="indefinite"/>
    <animate attributeName="opacity" values="0.6;0;0.6" dur="2.4s" repeatCount="indefinite"/>
  </circle>
  <text x="198" y="122" text-anchor="middle" font-family="ui-monospace, monospace" font-size="10" fill="#ffe6dd">4,350만</text>
  <!-- 거래 진행바 -->
  <rect x="24" y="262" width="352" height="6" rx="3" fill="#2d2820"/>
  <rect x="24" y="262" width="212" height="6" rx="3" fill="#db4322"/>
  <circle cx="236" cy="265" r="4" fill="#4ec6a7"/>
  <g font-family="ui-monospace, monospace" font-size="10" letter-spacing="1">
    <text x="24" y="286" fill="#857c6c">계약 → 등기 · 에스크로 보관중</text>
    <text x="376" y="286" text-anchor="end" fill="#4ec6a7">3 / 5</text>
  </g>
</svg>
