<svg xmlns="http://www.w3.org/2000/svg" viewBox="0 0 400 300" width="400" height="300" role="img" aria-label="Ether Archive cover">
  <rect width="400" height="300" fill="#161410"/>
  <!-- 회색 하늘의 태양 -->
  <circle cx="96" cy="74" r="26" fill="#857c6c" opacity="0.35"/>
  <circle cx="96" cy="74" r="15" fill="#857c6c" opacity="0.5"/>
  <!-- 재가 내리는 하늘 -->
  <g fill="#4a443a">
    <circle cx="170" cy="46" r="1.6"/><circle cx="238" cy="70" r="1.6"/>
    <circle cx="300" cy="40" r="1.6"/><circle cx="204" cy="102" r="1.6"/>
    <circle cx="338" cy="92" r="1.6"/><circle cx="140" cy="120" r="1.6"/>
  </g>
  <!-- 무너진 스카이라인 -->
  <path d="M0 190 L34 188 L34 148 L62 148 L62 172 L96 172 L96 132 L118 140 L142 118 L166 132 L166 176 L206 176 L206 150 L232 150 L232 168 L268 168 L268 128 L294 136 L316 116 L344 132 L344 176 L400 172 L400 300 L0 300 Z" fill="#241f19"/>
  <path d="M118 140 L142 118 L166 132" fill="none" stroke="#3a342a" stroke-width="2"/>
  <!-- 접속 캡슐: 낙원의 빛 -->
  <g>
    <path d="M186 262 V214 Q186 186 210 186 Q234 186 234 214 V262 Z" fill="#161410" stroke="#4ec6a7" stroke-width="2"/>
    <path d="M194 252 V216 Q194 196 210 196 Q226 196 226 216 V252 Z" fill="none" stroke="#4ec6a7" stroke-width="1.4" opacity="0.55"/>
    <path d="M198 228 Q204 223 210 227 T222 226" fill="none" stroke="#4ec6a7" stroke-width="1.4" opacity="0.8"/>
    <circle cx="218" cy="207" r="4" fill="none" stroke="#4ec6a7" stroke-width="1.4" opacity="0.8"/>
    <rect x="221" y="238" width="6" height="4" fill="#db4322"/>
    <rect x="214" y="245" width="8" height="3" fill="#db4322" opacity="0.7"/>
    <path d="M234 244 C280 244 288 262 336 260" fill="none" stroke="#3a342a" stroke-width="2"/>
    <path d="M234 252 C274 258 292 272 336 270" fill="none" stroke="#3a342a" stroke-width="2"/>
  </g>
  <!-- HUD 3칸 블록 -->
  <g>
    <rect x="52" y="240" width="11" height="11" fill="#db4322"/>
    <rect x="67" y="240" width="11" height="11" fill="#db4322"/>
    <rect x="82" y="240" width="11" height="11" fill="none" stroke="#4a443a" stroke-width="1.5"/>
    <rect x="52" y="258" width="11" height="11" fill="#857c6c"/>
    <rect x="67" y="258" width="11" height="11" fill="none" stroke="#4a443a" stroke-width="1.5"/>
    <rect x="82" y="258" width="11" height="11" fill="none" stroke="#4a443a" stroke-width="1.5"/>
  </g>
  <g font-family="ui-monospace, monospace" fill="#857c6c" font-size="11" letter-spacing="1">
    <text x="52" y="230">seoul · D+1095</text>
    <text x="348" y="230" text-anchor="end" fill="#db4322">endings 25</text>
  </g>
</svg>
