<svg xmlns="http://www.w3.org/2000/svg" viewBox="0 0 400 300" width="400" height="300" role="img" aria-label="Lookie cover">
  <rect width="400" height="300" fill="#161410"/>
  <!-- phone -->
  <rect x="46" y="42" width="112" height="200" rx="18" fill="#1f1b16" stroke="#3a342a" stroke-width="1.5"/>
  <rect x="88" y="52" width="28" height="5" rx="2.5" fill="#2d2820"/>
  <g>
    <rect x="58" y="66" width="88" height="36" rx="6" fill="#242019"/>
    <circle cx="71" cy="78" r="6" fill="#3a342a"/>
    <rect x="82" y="73" width="52" height="4" rx="2" fill="#4a443a"/>
    <rect x="82" y="82" width="38" height="4" rx="2" fill="#3a342a"/>
    <path d="M138 97c-2.6-1.7-4.4-3.4-4.4-5.2 0-1.4 1.1-2.4 2.4-2.4.8 0 1.6.4 2 1.1.4-.7 1.2-1.1 2-1.1 1.3 0 2.4 1 2.4 2.4 0 1.8-1.8 3.5-4.4 5.2z" fill="#db4322"/>
    <rect x="58" y="108" width="88" height="36" rx="6" fill="#242019"/>
    <circle cx="71" cy="120" r="6" fill="#3a342a"/>
    <rect x="82" y="115" width="46" height="4" rx="2" fill="#4a443a"/>
    <rect x="82" y="124" width="52" height="4" rx="2" fill="#3a342a"/>
    <rect x="58" y="150" width="88" height="36" rx="6" fill="#242019"/>
    <circle cx="71" cy="162" r="6" fill="#3a342a"/>
    <rect x="82" y="157" width="50" height="4" rx="2" fill="#4a443a"/>
    <rect x="82" y="166" width="34" height="4" rx="2" fill="#3a342a"/>
  </g>
  <rect x="58" y="196" width="88" height="14" rx="7" fill="#db4322"/>
  <g fill="#3a342a">
    <circle cx="78" cy="226" r="3.5"/><circle cx="102" cy="226" r="3.5" fill="#db4322"/><circle cx="126" cy="226" r="3.5"/>
  </g>
  <!-- admin console -->
  <rect x="198" y="56" width="158" height="172" rx="10" fill="#1f1b16" stroke="#3a342a" stroke-width="1.5"/>
  <path d="M198 66a10 10 0 0 1 10-10h138a10 10 0 0 1 10 10v12H198z" fill="#242019"/>
  <circle cx="210" cy="67" r="2.5" fill="#3a342a"/><circle cx="219" cy="67" r="2.5" fill="#3a342a"/><circle cx="228" cy="67" r="2.5" fill="#3a342a"/>
  <g>
    <rect x="210" y="88" width="42" height="30" rx="4" fill="#242019"/>
    <rect x="216" y="95" width="22" height="3.5" rx="1.75" fill="#3a342a"/>
    <rect x="216" y="104" width="30" height="6" rx="2" fill="#4ec6a7"/>
    <rect x="258" y="88" width="42" height="30" rx="4" fill="#242019"/>
    <rect x="264" y="95" width="22" height="3.5" rx="1.75" fill="#3a342a"/>
    <rect x="264" y="104" width="26" height="6" rx="2" fill="#db4322"/>
    <rect x="306" y="88" width="38" height="30" rx="4" fill="#242019"/>
    <rect x="312" y="95" width="20" height="3.5" rx="1.75" fill="#3a342a"/>
    <rect x="312" y="104" width="24" height="6" rx="2" fill="#4a443a"/>
  </g>
  <g>
    <rect x="210" y="130" width="134" height="1.5" fill="#2d2820"/>
    <rect x="210" y="140" width="44" height="4" rx="2" fill="#4a443a"/>
    <rect x="262" y="140" width="30" height="4" rx="2" fill="#3a342a"/>
    <rect x="318" y="136.5" width="26" height="10" rx="5" fill="none" stroke="#4ec6a7"/>
    <rect x="210" y="152" width="134" height="1.5" fill="#2d2820"/>
    <rect x="210" y="162" width="52" height="4" rx="2" fill="#4a443a"/>
    <rect x="270" y="162" width="24" height="4" rx="2" fill="#3a342a"/>
    <rect x="318" y="158.5" width="26" height="10" rx="5" fill="none" stroke="#db4322"/>
    <rect x="210" y="174" width="134" height="1.5" fill="#2d2820"/>
    <rect x="210" y="184" width="40" height="4" rx="2" fill="#4a443a"/>
    <rect x="258" y="184" width="34" height="4" rx="2" fill="#3a342a"/>
    <rect x="318" y="180.5" width="26" height="10" rx="5" fill="none" stroke="#3a342a"/>
    <rect x="210" y="196" width="134" height="1.5" fill="#2d2820"/>
    <rect x="210" y="206" width="48" height="4" rx="2" fill="#4a443a"/>
    <rect x="266" y="206" width="28" height="4" rx="2" fill="#3a342a"/>
    <rect x="318" y="202.5" width="26" height="10" rx="5" fill="none" stroke="#4a443a"/>
  </g>
  <!-- connector: app -> admin -->
  <path d="M158 142 C 176 142 180 142 198 142" stroke="#4a443a" stroke-width="1.5" stroke-dasharray="2 5" fill="none"/>
  <circle r="3.2" fill="#db4322">
    <animateMotion dur="2.4s" repeatCount="indefinite" path="M158 142 C 176 142 180 142 198 142"/>
  </circle>
  <g font-family="ui-monospace, monospace" font-size="11" letter-spacing="1" fill="#857c6c">
    <text x="46" y="272">app &#8596; admin &#183; POST /admin/reservations</text>
    <text x="356" y="272" text-anchor="end" fill="#4ec6a7">201</text>
  </g>
</svg>
