<svg xmlns="http://www.w3.org/2000/svg" viewBox="0 0 400 300" width="400" height="300" role="img" aria-label="Shanten Lab cover">
  <rect width="400" height="300" fill="#161410"/>

  <!-- 손패 다섯 장 -->
  <g stroke="#3a342a" stroke-width="1.5">
    <rect x="66"  y="150" width="44" height="64" rx="6" fill="#ece7da"/>
    <rect x="122" y="150" width="44" height="64" rx="6" fill="#ece7da"/>
    <rect x="178" y="150" width="44" height="64" rx="6" fill="#ece7da"/>
    <rect x="234" y="136" width="44" height="64" rx="6" fill="#ece7da"/>
    <rect x="290" y="150" width="44" height="64" rx="6" fill="#ece7da"/>
  </g>

  <!-- 2통 -->
  <circle cx="88" cy="170" r="7" fill="#3a342a"/>
  <circle cx="88" cy="194" r="7" fill="#3a342a"/>
  <!-- 3삭 -->
  <rect x="132" y="164" width="4" height="36" rx="2" fill="#1c6b5b"/>
  <rect x="142" y="164" width="4" height="36" rx="2" fill="#1c6b5b"/>
  <rect x="152" y="164" width="4" height="36" rx="2" fill="#1c6b5b"/>
  <!-- 만 -->
  <rect x="188" y="163" width="24" height="5" rx="2" fill="#db4322"/>
  <path d="M200 180 L210 192 L200 204 L190 192 Z" fill="#db4322"/>
  <!-- 중(타패) -->
  <rect x="254" y="144" width="5" height="46" rx="2" fill="#db4322"/>
  <rect x="244" y="156" width="24" height="20" rx="3" fill="none" stroke="#db4322" stroke-width="4"/>
  <!-- 5통 -->
  <circle cx="303" cy="167" r="5" fill="#3a342a"/>
  <circle cx="321" cy="167" r="5" fill="#3a342a"/>
  <circle cx="312" cy="182" r="5" fill="#1c6b5b"/>
  <circle cx="303" cy="197" r="5" fill="#3a342a"/>
  <circle cx="321" cy="197" r="5" fill="#3a342a"/>

  <!-- 추천 타패 강조 상자 -->
  <rect x="227" y="129" width="58" height="78" rx="9" fill="none" stroke="#db4322" stroke-width="3"/>
  <g font-family="ui-monospace, monospace" font-size="12" letter-spacing="1">
    <text x="256" y="118" text-anchor="middle" fill="#db4322">타패</text>
  </g>

  <!-- 하단 판독 -->
  <g font-family="ui-monospace, monospace" font-size="11" letter-spacing="1">
    <text x="40" y="278" fill="#857c6c">shanten dfs · java→js</text>
    <text x="360" y="278" text-anchor="end" fill="#4ec6a7">1샹텐 · 유효 24장</text>
  </g>
</svg>
