<svg xmlns="http://www.w3.org/2000/svg" viewBox="0 0 400 300" width="400" height="300" role="img" aria-label="SafeIn cover">
  <rect width="400" height="300" fill="#161410"/>
  <!-- console -->
  <rect x="42" y="48" width="176" height="192" rx="10" fill="#1f1b16" stroke="#3a342a" stroke-width="1.5"/>
  <path d="M42 58a10 10 0 0 1 10-10h156a10 10 0 0 1 10 10v12H42z" fill="#242019"/>
  <circle cx="54" cy="59" r="2.5" fill="#3a342a"/><circle cx="63" cy="59" r="2.5" fill="#3a342a"/><circle cx="72" cy="59" r="2.5" fill="#3a342a"/>
  <rect x="150" y="54" width="58" height="10" rx="5" fill="none" stroke="#3a342a"/>
  <!-- KPI cards -->
  <g>
    <rect x="54" y="82" width="48" height="34" rx="4" fill="#242019"/>
    <rect x="60" y="89" width="26" height="3.5" rx="1.75" fill="#3a342a"/>
    <rect x="60" y="99" width="32" height="7" rx="2" fill="#4ec6a7"/>
    <rect x="108" y="82" width="48" height="34" rx="4" fill="#242019"/>
    <rect x="114" y="89" width="26" height="3.5" rx="1.75" fill="#3a342a"/>
    <rect x="114" y="99" width="28" height="7" rx="2" fill="#db4322"/>
    <rect x="162" y="82" width="44" height="34" rx="4" fill="#242019"/>
    <rect x="168" y="89" width="22" height="3.5" rx="1.75" fill="#3a342a"/>
    <rect x="168" y="99" width="24" height="7" rx="2" fill="#4a443a"/>
  </g>
  <!-- TBM 작성 폼: 체크 리스트 + 발행 버튼 -->
  <g>
    <rect x="54" y="128" width="152" height="1.5" fill="#2d2820"/>
    <rect x="54" y="140" width="11" height="11" rx="3" fill="#db4322"/>
    <path d="M56.5 145.5l2.5 2.5 4.5-4.5" fill="none" stroke="#161410" stroke-width="1.8" stroke-linecap="round"/>
    <rect x="72" y="143" width="70" height="4" rx="2" fill="#4a443a"/>
    <rect x="54" y="158" width="11" height="11" rx="3" fill="#db4322"/>
    <path d="M56.5 163.5l2.5 2.5 4.5-4.5" fill="none" stroke="#161410" stroke-width="1.8" stroke-linecap="round"/>
    <rect x="72" y="161" width="56" height="4" rx="2" fill="#4a443a"/>
    <rect x="54" y="176" width="11" height="11" rx="3" fill="none" stroke="#3a342a" stroke-width="1.5"/>
    <rect x="72" y="179" width="62" height="4" rx="2" fill="#3a342a"/>
    <rect x="54" y="198" width="152" height="15" rx="7.5" fill="#db4322"/>
    <rect x="104" y="204" width="52" height="3.5" rx="1.75" fill="#161410" opacity="0.55"/>
  </g>
  <!-- phone -->
  <rect x="256" y="42" width="106" height="200" rx="18" fill="#1f1b16" stroke="#3a342a" stroke-width="1.5"/>
  <rect x="296" y="52" width="26" height="5" rx="2.5" fill="#2d2820"/>
  <!-- language chips -->
  <g>
    <rect x="266" y="66" width="20" height="10" rx="5" fill="#4a443a"/>
    <rect x="290" y="66" width="20" height="10" rx="5" fill="none" stroke="#3a342a"/>
    <rect x="314" y="66" width="20" height="10" rx="5" fill="none" stroke="#3a342a"/>
    <rect x="338" y="66" width="14" height="10" rx="5" fill="none" stroke="#3a342a"/>
  </g>
  <!-- TBM card -->
  <g>
    <rect x="266" y="84" width="86" height="76" rx="6" fill="#242019"/>
    <rect x="272" y="91" width="52" height="4.5" rx="2.25" fill="#4a443a"/>
    <rect x="272" y="102" width="26" height="9" rx="4.5" fill="none" stroke="#db4322"/>
    <rect x="302" y="102" width="30" height="9" rx="4.5" fill="none" stroke="#db4322"/>
    <rect x="272" y="118" width="60" height="3.5" rx="1.75" fill="#3a342a"/>
    <rect x="272" y="126" width="48" height="3.5" rx="1.75" fill="#3a342a"/>
    <rect x="272" y="138" width="74" height="14" rx="7" fill="#db4322"/>
    <rect x="292" y="143.5" width="34" height="3.5" rx="1.75" fill="#161410" opacity="0.55"/>
  </g>
  <!-- notice card -->
  <g>
    <rect x="266" y="168" width="86" height="46" rx="6" fill="#242019"/>
    <rect x="272" y="175" width="44" height="4" rx="2" fill="#4a443a"/>
    <rect x="272" y="185" width="66" height="3.5" rx="1.75" fill="#3a342a"/>
    <rect x="272" y="193" width="58" height="3.5" rx="1.75" fill="#3a342a"/>
    <rect x="272" y="202" width="28" height="8" rx="4" fill="none" stroke="#4ec6a7"/>
  </g>
  <g fill="#3a342a">
    <circle cx="288" cy="228" r="3.5" fill="#db4322"/><circle cx="309" cy="228" r="3.5"/><circle cx="330" cy="228" r="3.5"/>
  </g>
  <!-- connectors: console -> app (발행), app -> console (확인) -->
  <path d="M218 116 C 236 116 240 116 256 116" stroke="#4a443a" stroke-width="1.5" stroke-dasharray="2 5" fill="none"/>
  <circle r="3.2" fill="#db4322">
    <animateMotion dur="2.4s" repeatCount="indefinite" path="M218 116 C 236 116 240 116 256 116"/>
  </circle>
  <path d="M256 176 C 240 176 236 176 218 176" stroke="#4a443a" stroke-width="1.5" stroke-dasharray="2 5" fill="none"/>
  <circle r="3.2" fill="#4ec6a7">
    <animateMotion dur="2.4s" begin="1.2s" repeatCount="indefinite" path="M256 176 C 240 176 236 176 218 176"/>
  </circle>
  <g font-family="ui-monospace, monospace" font-size="11" letter-spacing="1" fill="#857c6c">
    <text x="42" y="272">console &#8596; app &#183; POST /admin/tbms &#8594; 15 langs</text>
    <text x="362" y="272" text-anchor="end" fill="#4ec6a7">201</text>
  </g>
</svg>
