<svg xmlns="http://www.w3.org/2000/svg" viewBox="0 0 400 300" width="400" height="300" role="img" aria-label="SUMS Console cover">
  <rect width="400" height="300" fill="#1b1915"/>
  <!-- 부지 경계 -->
  <rect x="36" y="34" width="328" height="176" rx="5" fill="none" stroke="#3a342a" stroke-dasharray="6 5"/>
  <!-- 도로 -->
  <rect x="0" y="218" width="400" height="34" fill="#26211a"/>
  <line x1="0" y1="235" x2="400" y2="235" stroke="#3a342a" stroke-width="2" stroke-dasharray="10 8"/>
  <!-- 건물 -->
  <rect x="64" y="58" width="82" height="58" rx="3" fill="#3a342a"/>
  <rect x="170" y="64" width="64" height="46" rx="3" fill="#332e25"/>
  <rect x="258" y="88" width="84" height="72" rx="3" fill="#3a342a"/>
  <rect x="88" y="140" width="70" height="52" rx="3" fill="none" stroke="#4a443a" stroke-dasharray="4 4"/>
  <!-- 위험 구역 (펄스) -->
  <circle cx="128" cy="146" r="42" fill="#db4322" opacity="0.16"/>
  <circle cx="128" cy="146" r="42" fill="none" stroke="#db4322" stroke-width="1.6"/>
  <circle cx="128" cy="146" r="42" fill="none" stroke="#db4322" opacity="0.5">
    <animate attributeName="r" values="42;54;42" dur="2.4s" repeatCount="indefinite"/>
    <animate attributeName="opacity" values="0.5;0;0.5" dur="2.4s" repeatCount="indefinite"/>
  </circle>
  <circle cx="300" cy="124" r="30" fill="#db4322" opacity="0.14"/>
  <circle cx="300" cy="124" r="30" fill="none" stroke="#db4322" stroke-width="1.4"/>
  <!-- 일반 구역 -->
  <circle cx="210" cy="176" r="24" fill="#4ec6a7" opacity="0.14"/>
  <circle cx="210" cy="176" r="24" fill="none" stroke="#4ec6a7" stroke-width="1.4"/>
  <g font-family="ui-monospace, monospace" font-size="11" letter-spacing="1">
    <text x="36" y="282" fill="#857c6c">sums · zones 5 · policies 3</text>
    <text x="364" y="282" text-anchor="end" fill="#db4322">차단 741</text>
  </g>
</svg>
